<?xml version="1.0" encoding="utf-8"?>
<!-- Generator: Adobe Illustrator 18.0.0, SVG Export Plug-In . SVG Version: 6.00 Build 0)  -->
<!DOCTYPE svg PUBLIC "-//W3C//DTD SVG 1.1//EN" "http://www.w3.org/Graphics/SVG/1.1/DTD/svg11.dtd">
<svg version="1.1" id="Layer_1" xmlns="http://www.w3.org/2000/svg" xmlns:xlink="http://www.w3.org/1999/xlink" x="0px" y="0px"
	 viewBox="0 0 349 469" enable-background="new 0 0 349 469" xml:space="preserve">
<path fill="#FFFFFF" d="M349,174.5C349,78.1,270.9,0,174.5,0S0,78.1,0,174.5c0,35.6,10.6,68.6,28.9,96.2l145,198.3L318,273.8l0,0
	C337.5,245.6,349,211.4,349,174.5z M255.5,274c-18.6,0-36.1-4.8-51.3-13.3c-9.1,2.8-18.7,4.3-28.7,4.3c-54.4,0-98.5-44.1-98.5-98.5
	S121.1,68,175.5,68s98.5,44.1,98.5,98.5c0,29.8-13.2,56.5-34.2,74.6c9.4,13.4,22.4,24,37.6,30.6C270.4,273.2,263,274,255.5,274z"/>
</svg>
