<?xml version="1.0" encoding="utf-8"?>
<!-- Generated by IcoMoon.io -->
<!DOCTYPE svg PUBLIC "-//W3C//DTD SVG 1.1//EN" "http://www.w3.org/Graphics/SVG/1.1/DTD/svg11.dtd">
<svg version="1.1" xmlns="http://www.w3.org/2000/svg" xmlns:xlink="http://www.w3.org/1999/xlink" width="32" height="32" viewBox="0 0 32 32">
<g transform="translate(0 0)">
	<path d="M25.6 14.4h-19.2c-0.883 0-1.6 0.717-1.6 1.6s0.717 1.6 1.6 1.6h19.2c0.885 0 1.6-0.717 1.6-1.6s-0.715-1.6-1.6-1.6zM6.4 11.2h19.2c0.885 0 1.6-0.717 1.6-1.6s-0.715-1.6-1.6-1.6h-19.2c-0.883 0-1.6 0.717-1.6 1.6s0.717 1.6 1.6 1.6zM25.6 20.8h-19.2c-0.883 0-1.6 0.715-1.6 1.6s0.717 1.6 1.6 1.6h19.2c0.885 0 1.6-0.715 1.6-1.6s-0.715-1.6-1.6-1.6z" fill="#2c3e50" />
</g>
</svg>
